<?xml version="1.0" standalone="no"?><svg xmlns="http://www.w3.org/2000/svg" viewBox="0 0 1440 320"><path fill="#0A223D" fill-opacity="1" d="M0,192L30,208C60,224,120,256,180,256C240,256,300,224,360,202.7C420,181,480,171,540,186.7C600,203,660,245,720,240C780,235,840,181,900,181.3C960,181,1020,235,1080,250.7C1140,267,1200,245,1260,202.7C1320,160,1380,96,1410,64L1440,32L1440,320L1410,320C1380,320,1320,320,1260,320C1200,320,1140,320,1080,320C1020,320,960,320,900,320C840,320,780,320,720,320C660,320,600,320,540,320C480,320,420,320,360,320C300,320,240,320,180,320C120,320,60,320,30,320L0,320Z"></path></svg>