<?xml version="1.0" standalone="no"?><svg xmlns="http://www.w3.org/2000/svg" viewBox="0 0 1440 320"><path fill="#0A223D" fill-opacity="1" d="M0,160L34.3,154.7C68.6,149,137,139,206,144C274.3,149,343,171,411,170.7C480,171,549,149,617,165.3C685.7,181,754,235,823,218.7C891.4,203,960,117,1029,112C1097.1,107,1166,181,1234,192C1302.9,203,1371,149,1406,122.7L1440,96L1440,320L1405.7,320C1371.4,320,1303,320,1234,320C1165.7,320,1097,320,1029,320C960,320,891,320,823,320C754.3,320,686,320,617,320C548.6,320,480,320,411,320C342.9,320,274,320,206,320C137.1,320,69,320,34,320L0,320Z"></path></svg>